<svg width="33" height="33" viewBox="0 0 33 33" fill="none" xmlns="http://www.w3.org/2000/svg">
<path d="M6.6582 26.0308H9.544" stroke="#5C97BF" stroke-width="1.86846" stroke-miterlimit="10" stroke-linecap="round"/>
<path d="M6.6582 22.0991H9.544" stroke="#5C97BF" stroke-width="1.86846" stroke-miterlimit="10" stroke-linecap="round"/>
<path d="M6.6582 18.1709H9.544" stroke="#5C97BF" stroke-width="1.86846" stroke-miterlimit="10" stroke-linecap="round"/>
<path d="M6.6582 14.2432H9.544" stroke="#5C97BF" stroke-width="1.86846" stroke-miterlimit="10" stroke-linecap="round"/>
<path d="M15.7715 14.2432H18.6573" stroke="#5C97BF" stroke-width="1.86846" stroke-miterlimit="10" stroke-linecap="round"/>
<path d="M6.6582 10.3115H9.544" stroke="#5C97BF" stroke-width="1.86846" stroke-miterlimit="10" stroke-linecap="round"/>
<path d="M15.7715 10.3115H18.6573" stroke="#5C97BF" stroke-width="1.86846" stroke-miterlimit="10" stroke-linecap="round"/>
<path d="M24.4951 31.0923C28.5871 31.0923 31.9043 27.7751 31.9043 23.6831C31.9043 19.5911 28.5871 16.2739 24.4951 16.2739C20.4031 16.2739 17.0859 19.5911 17.0859 23.6831C17.0859 27.7751 20.4031 31.0923 24.4951 31.0923Z" stroke="#5C97BF" stroke-width="1.86846" stroke-miterlimit="10" stroke-linecap="round"/>
<path d="M21.6914 23.6831H27.2951" stroke="#5C97BF" stroke-width="1.86846" stroke-miterlimit="10" stroke-linecap="round"/>
<path d="M24.4922 20.8813V26.485" stroke="#5C97BF" stroke-width="1.86846" stroke-miterlimit="10" stroke-linecap="round"/>
<path d="M24.9338 31.0923H3.29032C2.99379 31.0979 2.69908 31.0447 2.42318 30.9359C2.14729 30.8271 1.89565 30.6647 1.68276 30.4582C1.46987 30.2517 1.29994 30.0052 1.18277 29.7327C1.06559 29.4602 1.00347 29.1673 1 28.8707V4.54754C1.00819 3.98167 1.14968 3.4257 1.413 2.92476C1.67632 2.42382 2.05405 1.99203 2.51552 1.66443C2.97699 1.33683 3.5092 1.12265 4.06895 1.03928C4.62871 0.955904 5.20023 1.00569 5.73714 1.18459L22.3763 6.54394C23.3232 6.84196 24.1512 7.43268 24.7411 8.2311C25.331 9.02952 25.6524 9.99448 25.6591 10.9872V16.0488" stroke="#5C97BF" stroke-width="1.86846" stroke-miterlimit="10"/>
</svg>
