<svg width="33" height="33" viewBox="0 0 33 33" fill="none" xmlns="http://www.w3.org/2000/svg">
<path d="M25.7553 16.4854V5.08516C25.7553 4.54869 25.6496 4.01747 25.4443 3.52183C25.239 3.0262 24.9381 2.57586 24.5588 2.19651C24.1794 1.81717 23.7291 1.51626 23.2334 1.31096C22.7378 1.10567 22.2066 1 21.6701 1H5.08516C4.0017 1 2.96263 1.4304 2.19651 2.19651C1.4304 2.96263 1 4.0017 1 5.08516V28.905C1.00086 29.3163 1.11765 29.7191 1.33697 30.067C1.55628 30.415 1.86925 30.694 2.23995 30.8722C2.61065 31.0504 3.02408 31.1205 3.43279 31.0744C3.8415 31.0283 4.22893 30.8679 4.55065 30.6117L10.6287 25.7553H17.7988" stroke="#5C97BF" stroke-width="1.86846" stroke-miterlimit="10"/>
<path d="M6.67773 7.38721H20.2198" stroke="#5C97BF" stroke-width="1.86846" stroke-miterlimit="10" stroke-linecap="round"/>
<path d="M6.67773 12.8242H20.2198" stroke="#5C97BF" stroke-width="1.86846" stroke-miterlimit="10" stroke-linecap="round"/>
<path d="M6.67773 18.2607H13.8401" stroke="#5C97BF" stroke-width="1.86846" stroke-miterlimit="10" stroke-linecap="round"/>
<path d="M24.6059 31.0926C28.6986 31.0926 32.0164 27.7748 32.0164 23.682C32.0164 19.5893 28.6986 16.2715 24.6059 16.2715C20.5131 16.2715 17.1953 19.5893 17.1953 23.682C17.1953 27.7748 20.5131 31.0926 24.6059 31.0926Z" stroke="#5C97BF" stroke-width="1.86846" stroke-miterlimit="10" stroke-linecap="round"/>
<path d="M21.7988 23.6821H27.3997" stroke="#5C97BF" stroke-width="1.86846" stroke-miterlimit="10" stroke-linecap="round"/>
<path d="M24.6035 20.8799V26.4846" stroke="#5C97BF" stroke-width="1.86846" stroke-miterlimit="10" stroke-linecap="round"/>
</svg>
