<svg width="33" height="33" viewBox="0 0 33 33" fill="none" xmlns="http://www.w3.org/2000/svg">
<path d="M24.4984 31.0926C28.5912 31.0926 31.909 27.7748 31.909 23.682C31.909 19.5893 28.5912 16.2715 24.4984 16.2715C20.4057 16.2715 17.0879 19.5893 17.0879 23.682C17.0879 27.7748 20.4057 31.0926 24.4984 31.0926Z" stroke="#5C97BF" stroke-width="1.86846" stroke-miterlimit="10" stroke-linecap="round"/>
<path d="M21.6953 23.6821H27.3" stroke="#5C97BF" stroke-width="1.86846" stroke-miterlimit="10" stroke-linecap="round"/>
<path d="M24.668 21.0479L27.3023 23.6822" stroke="#5C97BF" stroke-width="1.86846" stroke-miterlimit="10" stroke-linecap="round"/>
<path d="M27.3023 23.6821L24.668 26.3127" stroke="#5C97BF" stroke-width="1.86846" stroke-miterlimit="10" stroke-linecap="round"/>
<path d="M24.9383 31.0927H4.66137C3.69032 31.0927 2.75903 30.707 2.07239 30.0203C1.38575 29.3337 1 28.4024 1 27.4314V4.66137C1 3.69032 1.38575 2.75903 2.07239 2.07239C2.75903 1.38575 3.69032 1 4.66137 1H21.9985C22.4793 1 22.9554 1.0947 23.3996 1.27871C23.8438 1.46271 24.2475 1.7324 24.5875 2.07239C24.9275 2.41238 25.1971 2.81601 25.3811 3.26023C25.5652 3.70444 25.6599 4.18055 25.6599 4.66137V16.0464" stroke="#5C97BF" stroke-width="1.86846" stroke-miterlimit="10" stroke-linecap="round"/>
<path d="M13.3264 15.5727C15.7449 15.5727 17.7055 13.6121 17.7055 11.1936C17.7055 8.77506 15.7449 6.81445 13.3264 6.81445C10.9079 6.81445 8.94727 8.77506 8.94727 11.1936C8.94727 13.6121 10.9079 15.5727 13.3264 15.5727Z" stroke="#5C97BF" stroke-width="1.86846" stroke-miterlimit="10" stroke-linecap="round"/>
<path d="M5.4082 31.0926V20.4712C5.4082 19.3574 5.85067 18.2891 6.63827 17.5015C7.42586 16.714 8.49407 16.2715 9.6079 16.2715H17.0337C18.0976 16.2773 19.1196 16.6866 19.8933 17.4169" stroke="#5C97BF" stroke-width="1.86846" stroke-miterlimit="10" stroke-linecap="round"/>
</svg>
