<svg width="24" height="24" viewBox="0 0 24 24" fill="none" xmlns="http://www.w3.org/2000/svg">
<path d="M11.9999 0.000125116C9.62658 0.000125116 7.30651 0.703909 5.33313 2.02248C3.35975 3.34105 1.82169 5.21518 0.913446 7.40788C0.00519943 9.60059 -0.232439 12.0134 0.230581 14.3411C0.693601 16.6689 1.83648 18.8071 3.51471 20.4853C5.19293 22.1635 7.33111 23.3064 9.65887 23.7694C11.9866 24.2324 14.3994 23.9948 16.5921 23.0866C18.7848 22.1783 20.659 20.6402 21.9775 18.6669C23.2961 16.6935 23.9999 14.3734 23.9999 12.0001C24.0071 10.4222 23.7016 8.85851 23.1011 7.39935C22.5007 5.94019 21.617 4.61446 20.5013 3.49872C19.3855 2.38299 18.0598 1.49935 16.6006 0.898857C15.1415 0.298361 13.5778 -0.00709639 11.9999 0.000125116ZM18.3817 15.8182C18.2836 15.9781 18.1478 16.1115 17.9861 16.2066C17.8244 16.3017 17.6419 16.3556 17.4545 16.3637C17.2609 16.3611 17.072 16.3044 16.909 16.2L10.909 12.6001V6.54555C10.909 6.25622 11.024 5.97874 11.2286 5.77416C11.4331 5.56958 11.7106 5.45464 11.9999 5.45464C12.2893 5.45464 12.5667 5.56958 12.7713 5.77416C12.9759 5.97874 13.0908 6.25622 13.0908 6.54555V11.4001L17.9999 14.3455C18.1258 14.4131 18.2363 14.506 18.3245 14.6184C18.4128 14.7307 18.4769 14.8601 18.5127 14.9984C18.5486 15.1367 18.5554 15.2809 18.5329 15.422C18.5104 15.5631 18.4589 15.698 18.3817 15.8182Z" fill="#36DA82"/>
</svg>
