<svg width="80" height="74" viewBox="0 0 80 74" fill="none" xmlns="http://www.w3.org/2000/svg">
<path d="M22 71.1769C20.8954 73.0901 18.4348 73.7613 16.6415 72.4712C11.7665 68.9644 7.72909 64.3939 4.84732 59.0864C1.32737 52.6034 -0.331257 45.2734 0.0548182 37.9066C0.440893 30.5398 2.85663 23.4233 7.03494 17.3438C11.2133 11.2643 16.9914 6.45864 23.7305 3.45819C30.4696 0.457734 37.9072 -0.620671 45.221 0.342202C52.5348 1.30508 59.4399 4.27172 65.1728 8.91414C70.9057 13.5566 75.2432 19.6939 77.7057 26.6477C79.7217 32.3407 80.4166 38.3994 79.7607 44.3687C79.5194 46.5646 77.3742 47.9441 75.2133 47.4848L63.4755 44.9899C61.3147 44.5306 59.9783 42.3977 59.9991 40.1887C60.0211 37.8612 59.6366 35.5372 58.8528 33.3238C57.6216 29.847 55.4529 26.7783 52.5864 24.4571C49.7199 22.1359 46.2674 20.6525 42.6105 20.1711C38.9536 19.6897 35.2348 20.2289 31.8653 21.7291C28.4957 23.2293 25.6066 25.6321 23.5175 28.6719C21.4283 31.7116 20.2204 35.2699 20.0274 38.9533C19.8344 42.6367 20.6637 46.3017 22.4237 49.5432C23.5441 51.6067 25.0139 53.4474 26.7582 54.9885C28.4138 56.4512 29.1046 58.8714 28 60.7846L22 71.1769Z" fill="#FF8B00"/>
</svg>
