<svg width="58" height="60" viewBox="0 0 58 60" fill="none" xmlns="http://www.w3.org/2000/svg">
<path d="M55.1141 36.7293C57.2479 37.3011 58.5387 39.5091 57.6883 41.548C56.0851 45.392 53.6929 48.8742 50.6506 51.7612C46.6374 55.5697 41.6491 58.1941 36.2374 59.3444C30.8256 60.4947 25.2011 60.1261 19.9858 58.2792C14.7705 56.4324 10.1674 53.1793 6.68562 48.8796C3.2038 44.5799 0.978813 39.4011 0.256655 33.9158C-0.465504 28.4305 0.343296 22.8523 2.59363 17.7979C4.84397 12.7436 8.44819 8.40996 13.0078 5.27622C16.4643 2.90064 20.3677 1.28473 24.4611 0.515746C26.6322 0.107867 28.5236 1.82952 28.6393 4.03563L29.0056 11.026C29.1212 13.2322 27.393 15.064 25.2953 15.7569C23.9552 16.1995 22.678 16.8312 21.5039 17.6381C19.2241 19.205 17.422 21.3718 16.2968 23.899C15.1716 26.4261 14.7672 29.2152 15.1283 31.9579C15.4894 34.7006 16.6019 37.29 18.3428 39.4398C20.0837 41.5897 22.3852 43.2162 24.9929 44.1396C27.6006 45.063 30.4128 45.2474 33.1187 44.6722C35.8246 44.0971 38.3187 42.7848 40.3253 40.8806C41.3587 39.8999 42.2421 38.7819 42.9537 37.5632C44.0676 35.6554 46.2187 34.3458 48.3526 34.9176L55.1141 36.7293Z" fill="#FF8B00"/>
</svg>
