<svg width="147" height="23" viewBox="0 0 147 23" fill="none" xmlns="http://www.w3.org/2000/svg">
<path d="M8.37891 3.21094L3.28125 18H0.199219L6.62109 0.9375H8.58984L8.37891 3.21094ZM12.6445 18L7.53516 3.21094L7.3125 0.9375H9.29297L15.7383 18H12.6445ZM12.3984 11.6719V14.0039H3.11719V11.6719H12.3984ZM24.8555 15.0117V5.32031H27.6914V18H25.0195L24.8555 15.0117ZM25.2539 12.375L26.2031 12.3516C26.2031 13.2031 26.1094 13.9883 25.9219 14.707C25.7344 15.418 25.4453 16.0391 25.0547 16.5703C24.6641 17.0938 24.1641 17.5039 23.5547 17.8008C22.9453 18.0898 22.2148 18.2344 21.3633 18.2344C20.7461 18.2344 20.1797 18.1445 19.6641 17.9648C19.1484 17.7852 18.7031 17.5078 18.3281 17.1328C17.9609 16.7578 17.6758 16.2695 17.4727 15.668C17.2695 15.0664 17.168 14.3477 17.168 13.5117V5.32031H19.9922V13.5352C19.9922 13.9961 20.0469 14.3828 20.1562 14.6953C20.2656 15 20.4141 15.2461 20.6016 15.4336C20.7891 15.6211 21.0078 15.7539 21.2578 15.832C21.5078 15.9102 21.7734 15.9492 22.0547 15.9492C22.8594 15.9492 23.4922 15.793 23.9531 15.4805C24.4219 15.1602 24.7539 14.7305 24.9492 14.1914C25.1523 13.6523 25.2539 13.0469 25.2539 12.375ZM36.3984 5.32031V7.38281H29.25V5.32031H36.3984ZM31.3125 2.21484H34.1367V14.4961C34.1367 14.8867 34.1914 15.1875 34.3008 15.3984C34.418 15.6016 34.5781 15.7383 34.7812 15.8086C34.9844 15.8789 35.2227 15.9141 35.4961 15.9141C35.6914 15.9141 35.8789 15.9023 36.0586 15.8789C36.2383 15.8555 36.3828 15.832 36.4922 15.8086L36.5039 17.9648C36.2695 18.0352 35.9961 18.0977 35.6836 18.1523C35.3789 18.207 35.0273 18.2344 34.6289 18.2344C33.9805 18.2344 33.4062 18.1211 32.9062 17.8945C32.4062 17.6602 32.0156 17.2812 31.7344 16.7578C31.4531 16.2344 31.3125 15.5391 31.3125 14.6719V2.21484ZM37.7578 11.8008V11.5312C37.7578 10.6172 37.8906 9.76953 38.1562 8.98828C38.4219 8.19922 38.8047 7.51562 39.3047 6.9375C39.8125 6.35156 40.4297 5.89844 41.1562 5.57812C41.8906 5.25 42.7188 5.08594 43.6406 5.08594C44.5703 5.08594 45.3984 5.25 46.125 5.57812C46.8594 5.89844 47.4805 6.35156 47.9883 6.9375C48.4961 7.51562 48.8828 8.19922 49.1484 8.98828C49.4141 9.76953 49.5469 10.6172 49.5469 11.5312V11.8008C49.5469 12.7148 49.4141 13.5625 49.1484 14.3438C48.8828 15.125 48.4961 15.8086 47.9883 16.3945C47.4805 16.9727 46.8633 17.4258 46.1367 17.7539C45.4102 18.0742 44.5859 18.2344 43.6641 18.2344C42.7344 18.2344 41.9023 18.0742 41.168 17.7539C40.4414 17.4258 39.8242 16.9727 39.3164 16.3945C38.8086 15.8086 38.4219 15.125 38.1562 14.3438C37.8906 13.5625 37.7578 12.7148 37.7578 11.8008ZM40.582 11.5312V11.8008C40.582 12.3711 40.6406 12.9102 40.7578 13.418C40.875 13.9258 41.0586 14.3711 41.3086 14.7539C41.5586 15.1367 41.8789 15.4375 42.2695 15.6562C42.6602 15.875 43.125 15.9844 43.6641 15.9844C44.1875 15.9844 44.6406 15.875 45.0234 15.6562C45.4141 15.4375 45.7344 15.1367 45.9844 14.7539C46.2344 14.3711 46.418 13.9258 46.5352 13.418C46.6602 12.9102 46.7227 12.3711 46.7227 11.8008V11.5312C46.7227 10.9688 46.6602 10.4375 46.5352 9.9375C46.418 9.42969 46.2305 8.98047 45.9727 8.58984C45.7227 8.19922 45.4023 7.89453 45.0117 7.67578C44.6289 7.44922 44.1719 7.33594 43.6406 7.33594C43.1094 7.33594 42.6484 7.44922 42.2578 7.67578C41.875 7.89453 41.5586 8.19922 41.3086 8.58984C41.0586 8.98047 40.875 9.42969 40.7578 9.9375C40.6406 10.4375 40.582 10.9688 40.582 11.5312ZM132.258 15.75V18H120.82V16.0664L126.375 10.0078C126.984 9.32031 127.465 8.72656 127.816 8.22656C128.168 7.72656 128.414 7.27734 128.555 6.87891C128.703 6.47266 128.777 6.07812 128.777 5.69531C128.777 5.15625 128.676 4.68359 128.473 4.27734C128.277 3.86328 127.988 3.53906 127.605 3.30469C127.223 3.0625 126.758 2.94141 126.211 2.94141C125.578 2.94141 125.047 3.07813 124.617 3.35156C124.188 3.625 123.863 4.00391 123.645 4.48828C123.426 4.96484 123.316 5.51172 123.316 6.12891H120.492C120.492 5.13672 120.719 4.23047 121.172 3.41016C121.625 2.58203 122.281 1.92578 123.141 1.44141C124 0.949219 125.035 0.703125 126.246 0.703125C127.387 0.703125 128.355 0.894531 129.152 1.27734C129.949 1.66016 130.555 2.20312 130.969 2.90625C131.391 3.60938 131.602 4.44141 131.602 5.40234C131.602 5.93359 131.516 6.46094 131.344 6.98438C131.172 7.50781 130.926 8.03125 130.605 8.55469C130.293 9.07031 129.922 9.58984 129.492 10.1133C129.062 10.6289 128.59 11.1523 128.074 11.6836L124.383 15.75H132.258ZM146.215 11.918V14.168H133.91L133.816 12.4688L141.176 0.9375H143.438L140.988 5.13281L136.758 11.918H146.215ZM144.082 0.9375V18H141.258V0.9375H144.082Z" fill="white"/>
<path d="M63.3633 15.668V18H54.3047V15.668H63.3633ZM55.1367 0.9375V18H52.1953V0.9375H55.1367ZM62.1797 8.0625V10.3594H54.3047V8.0625H62.1797ZM63.3047 0.9375V3.28125H54.3047V0.9375H63.3047ZM67.6406 5.32031L70.0547 9.52734L72.5156 5.32031H75.6211L71.7773 11.543L75.7734 18H72.668L70.0898 13.6172L67.5117 18H64.3945L68.3789 11.543L64.5469 5.32031H67.6406ZM80.3906 7.75781V22.875H77.5664V5.32031H80.168L80.3906 7.75781ZM88.6523 11.543V11.7891C88.6523 12.7109 88.543 13.5664 88.3242 14.3555C88.1133 15.1367 87.7969 15.8203 87.375 16.4062C86.9609 16.9844 86.4492 17.4336 85.8398 17.7539C85.2305 18.0742 84.5273 18.2344 83.7305 18.2344C82.9414 18.2344 82.25 18.0898 81.6562 17.8008C81.0703 17.5039 80.5742 17.0859 80.168 16.5469C79.7617 16.0078 79.4336 15.375 79.1836 14.6484C78.9414 13.9141 78.7695 13.1094 78.668 12.2344V11.2852C78.7695 10.3555 78.9414 9.51172 79.1836 8.75391C79.4336 7.99609 79.7617 7.34375 80.168 6.79688C80.5742 6.25 81.0703 5.82812 81.6562 5.53125C82.2422 5.23438 82.9258 5.08594 83.707 5.08594C84.5039 5.08594 85.2109 5.24219 85.8281 5.55469C86.4453 5.85938 86.9648 6.29688 87.3867 6.86719C87.8086 7.42969 88.125 8.10938 88.3359 8.90625C88.5469 9.69531 88.6523 10.5742 88.6523 11.543ZM85.8281 11.7891V11.543C85.8281 10.957 85.7734 10.4141 85.6641 9.91406C85.5547 9.40625 85.3828 8.96094 85.1484 8.57812C84.9141 8.19531 84.6133 7.89844 84.2461 7.6875C83.8867 7.46875 83.4531 7.35938 82.9453 7.35938C82.4453 7.35938 82.0156 7.44531 81.6562 7.61719C81.2969 7.78125 80.9961 8.01172 80.7539 8.30859C80.5117 8.60547 80.3242 8.95312 80.1914 9.35156C80.0586 9.74219 79.9648 10.168 79.9102 10.6289V12.9023C80.0039 13.4648 80.1641 13.9805 80.3906 14.4492C80.6172 14.918 80.9375 15.293 81.3516 15.5742C81.7734 15.8477 82.3125 15.9844 82.9688 15.9844C83.4766 15.9844 83.9102 15.875 84.2695 15.6562C84.6289 15.4375 84.9219 15.1367 85.1484 14.7539C85.3828 14.3633 85.5547 13.9141 85.6641 13.4062C85.7734 12.8984 85.8281 12.3594 85.8281 11.7891ZM96.6445 18.2344C95.707 18.2344 94.8594 18.082 94.1016 17.7773C93.3516 17.4648 92.7109 17.0312 92.1797 16.4766C91.6562 15.9219 91.2539 15.2695 90.9727 14.5195C90.6914 13.7695 90.5508 12.9609 90.5508 12.0938V11.625C90.5508 10.6328 90.6953 9.73438 90.9844 8.92969C91.2734 8.125 91.6758 7.4375 92.1914 6.86719C92.707 6.28906 93.3164 5.84766 94.0195 5.54297C94.7227 5.23828 95.4844 5.08594 96.3047 5.08594C97.2109 5.08594 98.0039 5.23828 98.6836 5.54297C99.3633 5.84766 99.9258 6.27734 100.371 6.83203C100.824 7.37891 101.16 8.03125 101.379 8.78906C101.605 9.54688 101.719 10.3828 101.719 11.2969V12.5039H91.9219V10.4766H98.9297V10.2539C98.9141 9.74609 98.8125 9.26953 98.625 8.82422C98.4453 8.37891 98.168 8.01953 97.793 7.74609C97.418 7.47266 96.918 7.33594 96.293 7.33594C95.8242 7.33594 95.4062 7.4375 95.0391 7.64062C94.6797 7.83594 94.3789 8.12109 94.1367 8.49609C93.8945 8.87109 93.707 9.32422 93.5742 9.85547C93.4492 10.3789 93.3867 10.9688 93.3867 11.625V12.0938C93.3867 12.6484 93.4609 13.1641 93.6094 13.6406C93.7656 14.1094 93.9922 14.5195 94.2891 14.8711C94.5859 15.2227 94.9453 15.5 95.3672 15.7031C95.7891 15.8984 96.2695 15.9961 96.8086 15.9961C97.4883 15.9961 98.0938 15.8594 98.625 15.5859C99.1562 15.3125 99.6172 14.9258 100.008 14.4258L101.496 15.8672C101.223 16.2656 100.867 16.6484 100.43 17.0156C99.9922 17.375 99.457 17.668 98.8242 17.8945C98.1992 18.1211 97.4727 18.2344 96.6445 18.2344ZM106.758 7.73438V18H103.934V5.32031H106.629L106.758 7.73438ZM110.637 5.23828L110.613 7.86328C110.441 7.83203 110.254 7.80859 110.051 7.79297C109.855 7.77734 109.66 7.76953 109.465 7.76953C108.98 7.76953 108.555 7.83984 108.188 7.98047C107.82 8.11328 107.512 8.30859 107.262 8.56641C107.02 8.81641 106.832 9.12109 106.699 9.48047C106.566 9.83984 106.488 10.2422 106.465 10.6875L105.82 10.7344C105.82 9.9375 105.898 9.19922 106.055 8.51953C106.211 7.83984 106.445 7.24219 106.758 6.72656C107.078 6.21094 107.477 5.80859 107.953 5.51953C108.438 5.23047 108.996 5.08594 109.629 5.08594C109.801 5.08594 109.984 5.10156 110.18 5.13281C110.383 5.16406 110.535 5.19922 110.637 5.23828ZM118.805 5.32031V7.38281H111.656V5.32031H118.805ZM113.719 2.21484H116.543V14.4961C116.543 14.8867 116.598 15.1875 116.707 15.3984C116.824 15.6016 116.984 15.7383 117.188 15.8086C117.391 15.8789 117.629 15.9141 117.902 15.9141C118.098 15.9141 118.285 15.9023 118.465 15.8789C118.645 15.8555 118.789 15.832 118.898 15.8086L118.91 17.9648C118.676 18.0352 118.402 18.0977 118.09 18.1523C117.785 18.207 117.434 18.2344 117.035 18.2344C116.387 18.2344 115.812 18.1211 115.312 17.8945C114.812 17.6602 114.422 17.2812 114.141 16.7578C113.859 16.2344 113.719 15.5391 113.719 14.6719V2.21484Z" fill="#FF8B00"/>
</svg>
