<svg width="60" height="60" viewBox="0 0 60 60" fill="none" xmlns="http://www.w3.org/2000/svg">
<path d="M54.9997 15.833H50.333C51.6663 14.233 52.4997 12.233 52.4997 9.99967C52.4997 4.93301 48.3997 0.833008 43.333 0.833008C37.733 0.833008 32.7997 3.79967 29.9997 8.19967C27.1997 3.79967 22.2663 0.833008 16.6663 0.833008C11.5997 0.833008 7.49967 4.93301 7.49967 9.99967C7.49967 12.233 8.33301 14.233 9.66634 15.833H4.99967C2.69967 15.833 0.833008 17.6997 0.833008 19.9997V28.333C0.833008 30.333 2.26634 31.933 4.16634 32.333V54.9997C4.16634 57.2997 6.03301 59.1663 8.33301 59.1663H51.6663C53.9663 59.1663 55.833 57.2997 55.833 54.9997V32.333C57.733 31.933 59.1663 30.333 59.1663 28.333V19.9997C59.1663 17.6997 57.2997 15.833 54.9997 15.833ZM54.1663 27.4997H32.4997V20.833H54.1663V27.4997ZM43.333 5.83301C45.633 5.83301 47.4997 7.69967 47.4997 9.99967C47.4997 12.2997 45.633 14.1663 43.333 14.1663H32.7997C33.933 9.39967 38.233 5.83301 43.333 5.83301ZM16.6663 5.83301C21.7663 5.83301 26.0663 9.39967 27.1997 14.1663H16.6663C14.3663 14.1663 12.4997 12.2997 12.4997 9.99967C12.4997 7.69967 14.3663 5.83301 16.6663 5.83301ZM5.83301 20.833H27.4997V27.4997H5.83301V20.833ZM9.16634 32.4997H27.4997V54.1663H9.16634V32.4997ZM50.833 54.1663H32.4997V32.4997H50.833V54.1663Z" fill="#36DA82"/>
</svg>
