<svg width="63" height="61" viewBox="0 0 63 61" fill="none" xmlns="http://www.w3.org/2000/svg">
<path d="M15.8917 57.5963H18.3917V55.0963V25.5808V23.0808H15.8917H10.689C6.53293 23.0808 2.98633 26.356 2.98633 30.5517V50.2287C2.98633 54.4907 6.6031 57.5963 10.689 57.5963H15.8917ZM59.7353 34.5097L59.7471 34.4676L59.7575 34.4251C61.21 28.4691 56.4146 23.0808 50.3961 23.0808H39.3039C39.2596 23.0808 39.2262 23.0743 39.2025 23.0668V11.3837C39.2025 8.27302 37.3717 5.12612 34.1131 3.94054L34.1112 3.93985C29.1964 2.15612 24.0167 5.03047 23.1279 9.82548L18.6956 24.9284L18.5944 25.2732V25.6324V55.0963V57.5963H21.0944H45.8749C50.222 57.5963 54.1671 54.789 55.225 50.5444L59.7353 34.5097Z" stroke="#36DA82" stroke-width="5"/>
</svg>
