<svg width="16" height="16" viewBox="0 0 16 16" fill="none" xmlns="http://www.w3.org/2000/svg">
<g id="SVG">
<path id="Vector" d="M7.99922 8.6C8.99333 8.6 9.79922 7.79411 9.79922 6.8C9.79922 5.80589 8.99333 5 7.99922 5C7.00511 5 6.19922 5.80589 6.19922 6.8C6.19922 7.79411 7.00511 8.6 7.99922 8.6Z" stroke="black" stroke-width="1.2"/>
<path id="Vector_2" d="M8.00195 14.998L7.54995 15.393C7.60627 15.4573 7.67569 15.5089 7.75356 15.5442C7.83142 15.5795 7.91595 15.5978 8.00145 15.5978C8.08696 15.5978 8.17148 15.5795 8.24935 15.5442C8.32722 15.5089 8.39664 15.4573 8.45295 15.393L8.00195 14.998ZM3.80595 10.198L3.33995 10.576L3.35395 10.593L3.80595 10.198ZM12.202 10.198L12.653 10.594C12.6577 10.5881 12.6624 10.5821 12.667 10.576L12.202 10.198ZM3.20195 6.79797C3.20195 5.52493 3.70767 4.30404 4.60784 3.40386C5.50801 2.50369 6.72891 1.99797 8.00195 1.99797V0.797974C6.41065 0.797974 4.88453 1.43011 3.75931 2.55533C2.63409 3.68055 2.00195 5.20667 2.00195 6.79797H3.20195ZM8.00195 1.99797C8.6323 1.99797 9.25647 2.12213 9.83883 2.36335C10.4212 2.60457 10.9503 2.95814 11.3961 3.40386C11.8418 3.84958 12.1954 4.37873 12.4366 4.96109C12.6778 5.54346 12.802 6.16763 12.802 6.79797H14.002C14.002 5.20667 13.3698 3.68055 12.2446 2.55533C11.1194 1.43011 9.59325 0.797974 8.00195 0.797974V1.99797ZM8.45295 14.604L4.25795 9.80397L3.35395 10.593L7.54995 15.394L8.45295 14.604ZM11.75 9.80397L7.54995 14.604L8.45295 15.394L12.653 10.594L11.75 9.80397ZM12.802 6.79797C12.8054 7.89804 12.4289 8.96555 11.736 9.81997L12.667 10.576C13.5336 9.50788 14.0052 8.17344 14.002 6.79797H12.802ZM4.27195 9.81997C3.57791 8.96592 3.19995 7.89847 3.20195 6.79797H2.00195C2.00195 8.22997 2.50295 9.54497 3.33995 10.576L4.27195 9.81997Z" fill="black"/>
</g>
</svg>
