<svg width="20" height="24" viewBox="0 0 20 24" fill="none" xmlns="http://www.w3.org/2000/svg">
<path fill-rule="evenodd" clip-rule="evenodd" d="M11.4733 22.6888C14.1644 20.1749 19.5994 14.4922 19.5994 9.6C19.5994 4.29807 15.3013 0 9.99941 0C4.69748 0 0.399414 4.29807 0.399414 9.6C0.399414 14.4922 5.83445 20.1749 8.52556 22.6888C9.36387 23.4719 10.635 23.4719 11.4733 22.6888ZM10.0006 11.9997C11.3261 11.9997 12.4006 10.9252 12.4006 9.59971C12.4006 8.27422 11.3261 7.19971 10.0006 7.19971C8.6751 7.19971 7.60059 8.27422 7.60059 9.59971C7.60059 10.9252 8.6751 11.9997 10.0006 11.9997Z" fill="#36DA82"/>
</svg>
