<svg width="24" height="24" viewBox="0 0 24 24" fill="none" xmlns="http://www.w3.org/2000/svg">
<path d="M0 3.33333C0 14.7472 9.25279 24 20.6667 24C21.1816 24 21.6921 23.9812 22.1977 23.9441C22.7779 23.9016 23.0679 23.8804 23.332 23.7284C23.5507 23.6025 23.758 23.3793 23.8676 23.152C24 22.8776 24 22.5575 24 21.9173V18.1609C24 17.6225 24 17.3533 23.9113 17.1227C23.8332 16.9188 23.706 16.7373 23.5412 16.5941C23.3547 16.432 23.1016 16.34 22.5957 16.156L18.32 14.6012C17.7313 14.3872 17.4369 14.2801 17.1577 14.2983C16.9115 14.3143 16.6745 14.3984 16.4732 14.5411C16.2449 14.7028 16.0839 14.9713 15.7616 15.5085L14.6667 17.3333C11.1335 15.7332 8.2692 12.8652 6.66667 9.33333L8.49151 8.23843C9.0286 7.91617 9.29715 7.75504 9.45893 7.52675C9.6016 7.32544 9.68573 7.08849 9.70173 6.84227C9.71987 6.56303 9.6128 6.26871 9.3988 5.68007L7.84399 1.40428C7.66 0.898346 7.56801 0.645373 7.40589 0.4588C7.26268 0.293987 7.08119 0.166867 6.87736 0.0886002C6.64661 1.58946e-07 6.37744 0 5.83909 0H2.08268C1.44251 0 1.12241 9.93411e-08 0.847973 0.132333C0.620667 0.241947 0.39752 0.449347 0.2716 0.66804C0.119573 0.932093 0.0983332 1.22216 0.0558532 1.80231C0.0188399 2.30781 0 2.81837 0 3.33333Z" fill="#36DA82"/>
</svg>
