<svg width="18" height="18" viewBox="0 0 18 18" fill="none" xmlns="http://www.w3.org/2000/svg">
<path d="M9.00138 12.5977C9.56112 12.5971 10.1071 12.7713 10.5634 13.0961C11.0197 13.4209 11.3637 13.88 11.5474 14.4097H11.5905H11.6962H17.0858C17.3176 14.4052 17.5422 14.4908 17.7124 14.6486C17.8826 14.8064 17.9851 15.0242 17.9985 15.2561C18.0119 15.488 17.9351 15.7161 17.7842 15.8925C17.6333 16.0689 17.4201 16.1799 17.1893 16.2022H17.0858H11.6962C11.6463 16.2023 11.5965 16.198 11.5474 16.1893C11.3629 16.7184 11.0187 17.1769 10.5626 17.5013C10.1064 17.8257 9.56081 18 9.00138 18C8.44195 18 7.89636 17.8257 7.44019 17.5013C6.98401 17.1769 6.63984 16.7184 6.45533 16.1893H6.41221H6.30657H0.91696C0.684834 16.1945 0.459734 16.1093 0.289009 15.9517C0.118285 15.794 0.0152435 15.5762 0.00156005 15.344C-0.0121234 15.1118 0.0646176 14.8834 0.21564 14.7067C0.366663 14.53 0.580197 14.4189 0.811323 14.3967H0.91696H6.30657C6.35716 14.3966 6.40765 14.4009 6.45748 14.4097C6.64083 13.8802 6.98437 13.4211 7.44032 13.0963C7.89627 12.7716 8.44193 12.5973 9.00138 12.5977ZM9.00138 14.3967C8.82358 14.3967 8.64977 14.4495 8.50193 14.5485C8.35409 14.6475 8.23886 14.7881 8.17082 14.9527C8.10278 15.1172 8.08498 15.2983 8.11966 15.473C8.15435 15.6477 8.23997 15.8082 8.3657 15.9341C8.49142 16.0601 8.65161 16.1459 8.82599 16.1806C9.00038 16.2154 9.18114 16.1975 9.34541 16.1294C9.50967 16.0612 9.65008 15.9458 9.74886 15.7977C9.84764 15.6496 9.90037 15.4754 9.90037 15.2973C9.90065 15.179 9.87759 15.0617 9.83251 14.9523C9.78743 14.8429 9.72123 14.7436 9.63769 14.6599C9.55416 14.5762 9.45494 14.5099 9.34574 14.4647C9.23654 14.4195 9.11951 14.3964 9.00138 14.3967ZM2.71493 6.29775C3.27479 6.29801 3.82068 6.47279 4.2769 6.79787C4.73312 7.12294 5.07705 7.5822 5.26099 8.11192H5.3041H5.40974H17.0858C17.3176 8.10742 17.5422 8.19307 17.7124 8.35088C17.8826 8.50869 17.9851 8.7264 17.9985 8.95833C18.0119 9.19025 17.9351 9.41836 17.7842 9.59477C17.6333 9.77118 17.4201 9.88219 17.1893 9.90449H17.0858H5.40974C5.35987 9.90466 5.31008 9.90032 5.26099 9.89154C5.09732 10.3586 4.8086 10.7717 4.42638 11.0855C4.04417 11.3993 3.58319 11.6017 3.09386 11.6707C2.60452 11.7397 2.10566 11.6726 1.65184 11.4767C1.19802 11.2808 0.806712 10.9636 0.520702 10.5599C0.234692 10.1562 0.0649953 9.68149 0.0301694 9.18767C-0.00465663 8.69385 0.0967288 8.19994 0.323239 7.75996C0.549749 7.31998 0.892661 6.95086 1.31448 6.69298C1.73629 6.43509 2.22077 6.29837 2.71493 6.29775ZM2.71493 8.09896C2.53695 8.09854 2.36284 8.15105 2.21467 8.24984C2.06651 8.34864 1.95095 8.48927 1.88264 8.65392C1.81433 8.81858 1.79634 8.99984 1.83096 9.17474C1.86558 9.34964 1.95125 9.51031 2.0771 9.63639C2.20296 9.76247 2.36334 9.84829 2.53793 9.88297C2.71251 9.91765 2.89345 9.89964 3.0578 9.8312C3.22216 9.76277 3.36254 9.647 3.46116 9.49857C3.55978 9.35014 3.61219 9.17572 3.61177 8.99741C3.6112 8.7593 3.51653 8.53111 3.34846 8.36274C3.1804 8.19438 2.95261 8.09953 2.71493 8.09896ZM12.5952 0C13.1547 0.000411959 13.7002 0.175007 14.1564 0.499631C14.6125 0.824255 14.9567 1.28286 15.1412 1.81201H15.1843H15.29H17.0858C17.3145 1.81305 17.5343 1.90141 17.7003 2.05908C17.8663 2.21676 17.966 2.43189 17.9792 2.66067C17.9924 2.88945 17.918 3.11466 17.7713 3.29043C17.6245 3.4662 17.4164 3.57932 17.1893 3.60674H17.0858H15.29C15.2395 3.60758 15.189 3.60396 15.1391 3.59594C14.9551 4.12527 14.6113 4.58411 14.1552 4.9088C13.6992 5.2335 13.1536 5.40795 12.5941 5.40795C12.0346 5.40795 11.489 5.2335 11.033 4.9088C10.5769 4.58411 10.2331 4.12527 10.0491 3.59594H10.0038H9.90037H0.919115C0.68699 3.60116 0.461889 3.51599 0.291165 3.35835C0.120441 3.2007 0.0173993 2.98287 0.00371589 2.75067C-0.00996755 2.51847 0.0667735 2.29001 0.217796 2.11333C0.368819 1.93666 0.582353 1.82555 0.813479 1.80337H0.919115H9.90037C9.95023 1.80329 10 1.80763 10.0491 1.81633C10.2327 1.2862 10.5765 0.826478 11.0327 0.500993C11.489 0.175507 12.0351 0.000406276 12.5952 0ZM12.5952 1.79905C12.4173 1.79862 12.2433 1.85108 12.0951 1.94978C11.947 2.04848 11.8315 2.18898 11.7631 2.35351C11.6947 2.51804 11.6766 2.69918 11.711 2.87403C11.7455 3.04887 11.8309 3.20954 11.9566 3.33571C12.0822 3.46188 12.2424 3.54787 12.4168 3.58279C12.5913 3.61772 12.7721 3.60001 12.9365 3.53191C13.1009 3.46381 13.2415 3.34838 13.3403 3.20023C13.4392 3.05208 13.492 2.87787 13.492 2.69965C13.492 2.46117 13.3976 2.23243 13.2295 2.06359C13.0613 1.89476 12.8332 1.79962 12.5952 1.79905Z" fill="#787878"/>
</svg>
