<svg width="26" height="18" viewBox="0 0 26 18" fill="none" xmlns="http://www.w3.org/2000/svg">
<rect y="7.5" width="24" height="3" rx="1" fill="white"/>
<path fill-rule="evenodd" clip-rule="evenodd" d="M16.0711 1.92893C15.6805 2.31946 15.6805 2.95262 16.0711 3.34315L21.7279 9L16.0711 14.6569C15.6805 15.0474 15.6805 15.6805 16.0711 16.0711L16.7782 16.7782C17.1687 17.1687 17.8019 17.1687 18.1924 16.7782L24.556 10.4145C24.5561 10.4144 24.5562 10.4143 24.5563 10.4142L25.2635 9.70711C25.654 9.31658 25.654 8.68342 25.2635 8.29289L24.5563 7.58579L18.1924 1.22183C17.8019 0.831301 17.1687 0.831301 16.7782 1.22183L16.0711 1.92893Z" fill="white"/>
</svg>
